# xmcd
#
# Track frame offsets:
#	150
#	14677
#	41662
#	63882
#	85062
#
# Disc length: 1441 seconds
# Revision: 0
# Processed by: cddbd v1.5.2PL0 Copyright (c) Steve Scherf et al.
# Submitted via: dBpowerAMP V12.0
#
DISCID=37059f05
DTITLE=Felix feat. Jomanda - Don't You Want Me
DYEAR=1992
DGENRE=House
TTITLE0=Don’t You Want Me [Hooj Mix Edit]
TTITLE1=Don’t You Want Me [Hooj Mix]
TTITLE2=Don’t You Want Me [Original Mix]
TTITLE3=Don’t You Want Me [Red Jerry’s Holiday Mix]
TTITLE4=Don’t You Want Me [Fierce Mix]
EXTD=
EXTT0=
EXTT1=
EXTT2=
EXTT3=
EXTT4=
PLAYORDER=
